<svg width="32" height="32" viewBox="0 0 32 32" fill="none" xmlns="http://www.w3.org/2000/svg">
<rect width="32" height="32" rx="4" fill="#FCF6E5"/>
<path fill-rule="evenodd" clip-rule="evenodd" d="M10.2591 6.81445C9.62494 6.81445 9.11081 7.32858 9.11081 7.96278V11.4078C9.11081 12.042 9.62494 12.5561 10.2591 12.5561H13.7041C14.3383 12.5561 14.8524 12.042 14.8524 11.4078V7.96278C14.8524 7.32858 14.3383 6.81445 13.7041 6.81445H10.2591ZM17.149 6.81445C16.5148 6.81445 16.0007 7.32857 16.0007 7.96278V18.2977C16.0007 18.9319 16.5148 19.446 17.149 19.446H27.484C28.1182 19.446 28.6323 18.9319 28.6323 18.2977V7.96278C28.6323 7.32858 28.1182 6.81445 27.484 6.81445H17.149ZM3.36914 13.7046C3.36914 13.0704 3.88326 12.5562 4.51747 12.5562H7.96244C8.59664 12.5562 9.11077 13.0704 9.11077 13.7046V24.0395C9.11077 24.6737 8.59664 25.1878 7.96244 25.1878H4.51747C3.88326 25.1878 3.36914 24.6737 3.36914 24.0395V13.7046ZM11.4074 19.446C10.7732 19.446 10.259 19.9602 10.259 20.5944V24.0393C10.259 24.6735 10.7732 25.1877 11.4074 25.1877H14.8523C15.4865 25.1877 16.0007 24.6735 16.0007 24.0393V20.5944C16.0007 19.9602 15.4865 19.446 14.8523 19.446H11.4074Z" fill="url(#paint0_linear_323_233)"/>
<defs>
<linearGradient id="paint0_linear_323_233" x1="12.0469" y1="-10.6657" x2="53.7811" y2="20.6597" gradientUnits="userSpaceOnUse">
<stop stop-color="#8A6800"/>
<stop offset="1" stop-color="#DBA600"/>
</linearGradient>
</defs>
</svg>
